<?xml version="1.0" encoding="UTF-8"?>
<svg id="Capa_1" data-name="Capa 1" xmlns="http://www.w3.org/2000/svg" xmlns:xlink="http://www.w3.org/1999/xlink" viewBox="0 0 612 729">
  <defs>
    <style>
      .cls-1 {
        fill: none;
      }

      .cls-2 {
        fill: #231f20;
      }

      .cls-3 {
        font-family: Montserrat-SemiBold, Montserrat;
        font-size: 7.19px;
        font-weight: 600;
      }

      .cls-4 {
        font-family: Montserrat-ExtraBold, Montserrat;
        font-size: 7.27px;
      }

      .cls-4, .cls-5, .cls-6 {
        font-weight: 700;
      }

      .cls-7 {
        letter-spacing: .4em;
      }

      .cls-8 {
        letter-spacing: .4em;
      }

      .cls-9 {
        letter-spacing: .4em;
      }

      .cls-10 {
        letter-spacing: .32em;
      }

      .cls-11 {
        letter-spacing: .31em;
      }

      .cls-12 {
        letter-spacing: .32em;
      }

      .cls-13 {
        letter-spacing: .15em;
      }

      .cls-14 {
        letter-spacing: .15em;
      }

      .cls-15 {
        letter-spacing: 0em;
      }

      .cls-16 {
        clip-path: url(#clippath-1);
      }

      .cls-17 {
        clip-path: url(#clippath-3);
      }

      .cls-18 {
        clip-path: url(#clippath-4);
      }

      .cls-19 {
        clip-path: url(#clippath-2);
      }

      .cls-20 {
        clip-path: url(#clippath-5);
      }

      .cls-21 {
        letter-spacing: 0em;
      }

      .cls-22 {
        letter-spacing: 0em;
      }

      .cls-23 {
        letter-spacing: 0em;
      }

      .cls-24 {
        letter-spacing: 0em;
      }

      .cls-25 {
        letter-spacing: 0em;
      }

      .cls-26 {
        letter-spacing: 0em;
      }

      .cls-27 {
        letter-spacing: 0em;
      }

      .cls-28 {
        letter-spacing: 0em;
      }

      .cls-29 {
        letter-spacing: 0em;
      }

      .cls-30 {
        letter-spacing: 0em;
      }

      .cls-31 {
        font-size: 7px;
      }

      .cls-31, .cls-32, .cls-33 {
        font-family: Montserrat-Regular, Montserrat;
      }

      .cls-32, .cls-6 {
        font-size: 5.78px;
      }

      .cls-5, .cls-33 {
        font-size: 17px;
      }

      .cls-5, .cls-6 {
        font-family: Montserrat-Bold, Montserrat;
      }

      .cls-34 {
        fill: #e8fa00;
      }

      .cls-35 {
        letter-spacing: -.06em;
      }

      .cls-36 {
        letter-spacing: -.06em;
      }

      .cls-37 {
        letter-spacing: -.06em;
      }

      .cls-38 {
        letter-spacing: -.07em;
      }

      .cls-39 {
        letter-spacing: -.07em;
      }

      .cls-40 {
        letter-spacing: -.05em;
      }

      .cls-41 {
        letter-spacing: -.05em;
      }

      .cls-42 {
        letter-spacing: -.06em;
      }

      .cls-43 {
        letter-spacing: -.06em;
      }

      .cls-44 {
        letter-spacing: -.06em;
      }

      .cls-45 {
        letter-spacing: -.02em;
      }

      .cls-46 {
        letter-spacing: -.03em;
      }

      .cls-47 {
        letter-spacing: -.03em;
      }

      .cls-48 {
        letter-spacing: -.02em;
      }

      .cls-49 {
        letter-spacing: -.02em;
      }

      .cls-50 {
        letter-spacing: -.02em;
      }

      .cls-51 {
        letter-spacing: -.02em;
      }

      .cls-52 {
        letter-spacing: -.02em;
      }

      .cls-53 {
        letter-spacing: -.02em;
      }

      .cls-54 {
        letter-spacing: -.02em;
      }

      .cls-55 {
        letter-spacing: -.02em;
      }

      .cls-56 {
        letter-spacing: -.02em;
      }

      .cls-57 {
        letter-spacing: -.01em;
      }

      .cls-58 {
        letter-spacing: -.01em;
      }

      .cls-59 {
        letter-spacing: -.01em;
      }

      .cls-60 {
        letter-spacing: -.01em;
      }

      .cls-61 {
        letter-spacing: -.01em;
      }

      .cls-62 {
        letter-spacing: -.02em;
      }

      .cls-63 {
        letter-spacing: -.05em;
      }

      .cls-64 {
        letter-spacing: -.05em;
      }

      .cls-65 {
        letter-spacing: -.05em;
      }

      .cls-66 {
        letter-spacing: -.05em;
      }

      .cls-67 {
        letter-spacing: -.05em;
      }

      .cls-68 {
        letter-spacing: -.05em;
      }

      .cls-69 {
        letter-spacing: -.05em;
      }

      .cls-70 {
        letter-spacing: -.04em;
      }

      .cls-71 {
        letter-spacing: -.04em;
      }

      .cls-72 {
        letter-spacing: -.04em;
      }

      .cls-73 {
        letter-spacing: -.04em;
      }

      .cls-74 {
        letter-spacing: -.04em;
      }

      .cls-75 {
        letter-spacing: -.04em;
      }

      .cls-76 {
        letter-spacing: -.03em;
      }

      .cls-77 {
        letter-spacing: -.03em;
      }

      .cls-78 {
        letter-spacing: -.03em;
      }

      .cls-79 {
        letter-spacing: -.03em;
      }

      .cls-80 {
        letter-spacing: -.04em;
      }

      .cls-81 {
        letter-spacing: -.04em;
      }

      .cls-82 {
        letter-spacing: -.03em;
      }

      .cls-83 {
        letter-spacing: -.03em;
      }

      .cls-84 {
        letter-spacing: -.04em;
      }

      .cls-85 {
        letter-spacing: -.04em;
      }

      .cls-86 {
        letter-spacing: -.03em;
      }

      .cls-87 {
        letter-spacing: -.03em;
      }

      .cls-88 {
        letter-spacing: -.03em;
      }

      .cls-89 {
        letter-spacing: -.03em;
      }

      .cls-90 {
        letter-spacing: -.03em;
      }

      .cls-91 {
        letter-spacing: -.03em;
      }

      .cls-92 {
        letter-spacing: 0em;
      }

      .cls-93 {
        letter-spacing: 0em;
      }

      .cls-94 {
        letter-spacing: 0em;
      }

      .cls-95 {
        letter-spacing: 0em;
      }

      .cls-96 {
        letter-spacing: 0em;
      }

      .cls-97 {
        letter-spacing: -.01em;
      }

      .cls-98 {
        letter-spacing: 0em;
      }

      .cls-99 {
        letter-spacing: 0em;
      }

      .cls-100 {
        letter-spacing: -.01em;
      }

      .cls-101 {
        letter-spacing: 0em;
      }

      .cls-102 {
        letter-spacing: 0em;
      }

      .cls-103 {
        letter-spacing: 0em;
      }

      .cls-104 {
        letter-spacing: 0em;
      }

      .cls-105 {
        letter-spacing: 0em;
      }

      .cls-106 {
        letter-spacing: 0em;
      }

      .cls-107 {
        letter-spacing: 0em;
      }

      .cls-108 {
        letter-spacing: .09em;
      }

      .cls-109 {
        letter-spacing: .08em;
      }

      .cls-110 {
        letter-spacing: .08em;
      }

      .cls-111 {
        letter-spacing: .06em;
      }

      .cls-112 {
        letter-spacing: .02em;
      }

      .cls-113 {
        letter-spacing: .02em;
      }

      .cls-114 {
        clip-path: url(#clippath);
      }

      .cls-115 {
        letter-spacing: .02em;
      }

      .cls-116 {
        letter-spacing: .02em;
      }

      .cls-117 {
        letter-spacing: .03em;
      }

      .cls-118 {
        letter-spacing: .03em;
      }

      .cls-119 {
        letter-spacing: 0em;
      }

      .cls-120 {
        letter-spacing: .01em;
      }

      .cls-121 {
        letter-spacing: 0em;
      }

      .cls-122 {
        letter-spacing: 0em;
      }

      .cls-123 {
        letter-spacing: 0em;
      }
    </style>
    <clipPath id="clippath">
      <rect class="cls-1" width="612" height="729"/>
    </clipPath>
    <clipPath id="clippath-1">
      <rect class="cls-1" x="43.8" y="664.57" width="297.53" height="14.94"/>
    </clipPath>
    <clipPath id="clippath-2">
      <rect class="cls-1" width="612" height="729"/>
    </clipPath>
    <clipPath id="clippath-3">
      <rect class="cls-1" x="236.62" y="239.35" width="138.74" height="49.24"/>
    </clipPath>
    <clipPath id="clippath-4">
      <rect class="cls-1" x="234.5" y="299.09" width="143.01" height="8.34"/>
    </clipPath>
    <clipPath id="clippath-5">
      <rect class="cls-1" width="612" height="729"/>
    </clipPath>
  </defs>
  <g class="cls-114">
    <rect class="cls-34" width="612" height="729"/>
  </g>
  <g class="cls-16">
    <text class="cls-4" transform="translate(43.9 671.18) scale(1.04 1)"><tspan class="cls-104" x="0" y="0">A</tspan><tspan x="5.65" y="0">GENCIA </tspan><tspan class="cls-51" x="37.63" y="0">P</tspan><tspan x="42.86" y="0">ÚBLI</tspan><tspan class="cls-97" x="61.05" y="0">C</tspan><tspan x="66.33" y="0">A - ASUN</tspan><tspan class="cls-103" x="101.07" y="0">T</tspan><tspan x="105.61" y="0">OS </tspan><tspan class="cls-62" x="118.58" y="0">P</tspan><tspan x="123.81" y="0">ÚBLI</tspan><tspan class="cls-61" x="142.01" y="0">C</tspan><tspan class="cls-29" x="147.27" y="0">OS </tspan></text>
    <text class="cls-32" transform="translate(210.3 671.18) scale(1.04 1)"><tspan class="cls-70" x="0" y="0">!</tspan><tspan class="cls-80" x="1.29" y="0">&quot;</tspan><tspan x="3.25" y="0">#$</tspan><tspan class="cls-75" x="10.83" y="0">%</tspan><tspan x="15.36" y="0">!&amp;</tspan><tspan class="cls-96" x="20.73" y="0">&apos;</tspan><tspan class="cls-15" x="21.88" y="0">($)&apos;$</tspan><tspan class="cls-23" x="33.96" y="0">*</tspan><tspan x="36.2" y="0">!&amp;$</tspan><tspan class="cls-75" x="45.12" y="0">%</tspan><tspan class="cls-28" x="49.66" y="0">!*+!&amp;$,</tspan><tspan class="cls-56" x="66.87" y="0">(</tspan><tspan class="cls-15" x="68.66" y="0">#$-./0$1,</tspan><tspan class="cls-76" x="92.3" y="0">2</tspan><tspan x="95.41" y="0">#$.</tspan><tspan class="cls-98" x="104.21" y="0">3</tspan><tspan class="cls-30" x="107.42" y="0">4</tspan></text>
    <text class="cls-32" transform="translate(43.9 677.97) scale(1.04 1)"><tspan x="0" y="0">+156&apos;*$71</tspan><tspan class="cls-102" x="24.65" y="0">)</tspan><tspan x="26.5" y="0">!</tspan><tspan class="cls-58" x="28" y="0">*</tspan><tspan x="30.16" y="0">5($8)+9$..333$</tspan><tspan class="cls-59" x="70.66" y="0">*</tspan><tspan x="72.81" y="0">(+!&amp;$)&apos;$87!</tspan><tspan class="cls-96" x="102.18" y="0">%</tspan><tspan x="106.95" y="0">6</tspan><tspan class="cls-37" x="110.47" y="0">*</tspan><tspan x="112.34" y="0">2&apos;</tspan><tspan class="cls-99" x="116.79" y="0">%</tspan><tspan class="cls-106" x="121.53" y="0">&apos;</tspan><tspan x="122.68" y="0">8$</tspan></text>
    <text class="cls-6" transform="translate(220.4 677.97) scale(1.04 1)"><tspan x="0" y="0">!&quot;#$</tspan><tspan class="cls-94" x="12.05" y="0">%</tspan><tspan x="17.09" y="0">&amp;#</tspan><tspan class="cls-94" x="25.46" y="0">%%</tspan><tspan class="cls-107" x="35.55" y="0">&amp;</tspan><tspan class="cls-15" x="39.75" y="0">&apos;#</tspan><tspan class="cls-92" x="45.24" y="0">(</tspan><tspan x="47.27" y="0">)</tspan><tspan class="cls-100" x="49.34" y="0">*</tspan><tspan x="51.79" y="0">)###</tspan></text>
    <text class="cls-6" transform="translate(280.91 677.97) scale(1.04 1)"><tspan x="0" y="0">#</tspan></text>
    <text class="cls-6" transform="translate(283.32 677.97) scale(1.04 1)"><tspan x="0" y="0">$</tspan><tspan class="cls-94" x="3.69" y="0">%</tspan><tspan x="8.73" y="0">&amp;#</tspan><tspan class="cls-95" x="17.1" y="0">%</tspan><tspan x="22.15" y="0">%#</tspan><tspan class="cls-122" x="31.38" y="0">(</tspan><tspan class="cls-21" x="33.5" y="0">+,,#**&apos;+</tspan></text>
    <path d="M276.76,679.03c.07-.24.13-.48.19-.71.09-.33.18-.65.27-.98.01-.04,0-.11-.02-.15-1-1.87-.12-4.16,1.87-4.87,1.97-.7,4.15.57,4.5,2.63.33,1.91-.97,3.71-2.87,3.98-.72.1-1.41-.01-2.06-.34-.05-.02-.11-.03-.17-.02-.54.14-1.09.28-1.63.42-.03,0-.05.01-.09.02M277.58,678.22c.34-.09.66-.17.98-.26.07-.02.12,0,.17.03.55.33,1.15.47,1.79.39,1.55-.18,2.66-1.55,2.51-3.1-.17-1.8-1.98-2.99-3.7-2.43-1.75.57-2.51,2.6-1.56,4.18.06.11.08.2.04.32-.09.28-.16.57-.24.88"/>
    <path d="M281.08,677.32c-.1-.02-.24-.05-.37-.09-.85-.26-1.47-.8-1.93-1.54-.16-.26-.32-.52-.35-.83-.04-.36.08-.65.35-.89.11-.1.33-.13.46-.05.05.03.1.09.13.15.09.22.17.44.25.66.02.06,0,.14-.03.19-.05.08-.13.15-.19.23-.08.1-.08.15-.02.26.25.45.61.78,1.07,1.01.15.08.2.07.32-.06.08-.09.16-.18.23-.27.05-.06.1-.08.17-.05.25.13.5.26.75.4.04.02.06.1.05.15-.03.36-.18.56-.64.7-.06.02-.13.02-.24.03"/>
  </g>
  <g class="cls-19">
    <text class="cls-31" transform="translate(45.07 591.94)"><tspan class="cls-45" x="0" y="0">A</tspan><tspan class="cls-55" x="4.85" y="0">d</tspan><tspan class="cls-81" x="9.46" y="0">v</tspan><tspan class="cls-54" x="13.01" y="0">a</tspan><tspan class="cls-52" x="17.01" y="0">n</tspan><tspan class="cls-90" x="21.62" y="0">c</tspan><tspan class="cls-54" x="25.37" y="0">ed</tspan><tspan class="cls-26" x="34.08" y="0"> </tspan><tspan class="cls-54" x="35.92" y="0">A</tspan><tspan class="cls-93" x="40.81" y="0">r</tspan><tspan class="cls-54" x="43.59" y="0">tific</tspan><tspan class="cls-49" x="55.99" y="0">ial</tspan><tspan class="cls-25" x="63.46" y="0"> </tspan><tspan class="cls-54" x="65.32" y="0">In</tspan><tspan class="cls-85" x="71.9" y="0">t</tspan><tspan class="cls-54" x="74.47" y="0">el</tspan><tspan class="cls-49" x="80.32" y="0">li</tspan><tspan class="cls-54" x="83.8" y="0">ge</tspan><tspan class="cls-52" x="92.56" y="0">n</tspan><tspan class="cls-90" x="97.17" y="0">c</tspan><tspan class="cls-54" x="100.92" y="0">e</tspan><tspan class="cls-24" x="105.01" y="0"> </tspan><tspan class="cls-54" x="106.87" y="0">Deep</tspan><tspan class="cls-25" x="125.32" y="0"> </tspan><tspan class="cls-55" x="127.17" y="0">Res</tspan><tspan class="cls-78" x="139.48" y="0">e</tspan><tspan class="cls-54" x="143.47" y="0">a</tspan><tspan class="cls-83" x="147.47" y="0">r</tspan><tspan class="cls-46" x="150.05" y="0">c</tspan><tspan class="cls-55" x="153.8" y="0">h</tspan><tspan class="cls-27" x="158.4" y="0"> </tspan><tspan class="cls-89" x="160.25" y="0">c</tspan><tspan class="cls-55" x="163.99" y="0">o</tspan><tspan class="cls-53" x="168.25" y="0">n</tspan><tspan class="cls-54" x="172.86" y="0">du</tspan><tspan class="cls-57" x="182.05" y="0">c</tspan><tspan class="cls-85" x="185.9" y="0">t</tspan><tspan class="cls-55" x="188.47" y="0">ed</tspan><tspan class="cls-26" x="197.18" y="0"> </tspan><tspan class="cls-79" x="199.03" y="0">b</tspan><tspan class="cls-55" x="203.54" y="0">y</tspan><tspan class="cls-27" x="207.2" y="0"> </tspan><tspan class="cls-55" x="209.04" y="0">A</tspan><tspan class="cls-39" x="213.93" y="0">P</tspan><tspan class="cls-54" x="218.49" y="0">/</tspan><tspan class="cls-36" x="220.7" y="0">P</tspan><tspan class="cls-55" x="225.28" y="0">A</tspan><tspan class="cls-27" x="230.16" y="0"> </tspan><tspan class="cls-55" x="232.01" y="0">uti</tspan><tspan class="cls-49" x="241.04" y="0">l</tspan><tspan class="cls-54" x="242.78" y="0">i</tspan><tspan class="cls-89" x="244.53" y="0">z</tspan><tspan class="cls-54" x="247.92" y="0">es</tspan><tspan class="cls-27" x="255.29" y="0"> </tspan><tspan class="cls-55" x="257.14" y="0">p</tspan><tspan class="cls-83" x="261.75" y="0">r</tspan><tspan class="cls-55" x="264.34" y="0">op</tspan><tspan class="cls-47" x="273.21" y="0">r</tspan><tspan class="cls-54" x="275.82" y="0">iet</tspan><tspan class="cls-48" x="284.38" y="0">a</tspan><tspan class="cls-93" x="288.37" y="0">r</tspan><tspan class="cls-54" x="291.15" y="0">y</tspan><tspan x="294.81" y="0"> </tspan></text>
    <text class="cls-31" transform="translate(45.07 600.94)"><tspan class="cls-55" x="0" y="0">Ret</tspan><tspan class="cls-47" x="11.73" y="0">r</tspan><tspan class="cls-54" x="14.35" y="0">i</tspan><tspan class="cls-88" x="16.1" y="0">e</tspan><tspan class="cls-81" x="20.12" y="0">v</tspan><tspan class="cls-54" x="23.67" y="0">al</tspan><tspan class="cls-79" x="29.42" y="0">-</tspan><tspan class="cls-88" x="31.86" y="0">A</tspan><tspan class="cls-55" x="36.67" y="0">ug</tspan><tspan class="cls-52" x="45.91" y="0">m</tspan><tspan class="cls-55" x="53.21" y="0">en</tspan><tspan class="cls-85" x="61.91" y="0">t</tspan><tspan class="cls-54" x="64.48" y="0">ed</tspan><tspan class="cls-9" x="73.19" y="0"> </tspan><tspan class="cls-55" x="77.85" y="0">Ge</tspan><tspan class="cls-52" x="87.23" y="0">n</tspan><tspan class="cls-55" x="91.84" y="0">e</tspan><tspan class="cls-90" x="95.93" y="0">r</tspan><tspan class="cls-54" x="98.54" y="0">ati</tspan><tspan class="cls-49" x="107" y="0">o</tspan><tspan class="cls-54" x="111.25" y="0">n</tspan><tspan class="cls-8" x="115.85" y="0"> </tspan><tspan class="cls-54" x="120.51" y="0">(R</tspan><tspan class="cls-77" x="127.61" y="0">A</tspan><tspan class="cls-55" x="132.42" y="0">G</tspan><tspan class="cls-48" x="137.7" y="0">)</tspan><tspan class="cls-7" x="139.86" y="0"> </tspan><tspan class="cls-55" x="144.53" y="0">a</tspan><tspan class="cls-83" x="148.52" y="0">r</tspan><tspan class="cls-46" x="151.11" y="0">c</tspan><tspan class="cls-54" x="154.86" y="0">hi</tspan><tspan class="cls-85" x="161.21" y="0">t</tspan><tspan class="cls-54" x="163.78" y="0">e</tspan><tspan class="cls-60" x="167.88" y="0">c</tspan><tspan class="cls-54" x="171.73" y="0">tu</tspan><tspan class="cls-82" x="179.01" y="0">r</tspan><tspan class="cls-54" x="181.59" y="0">es,</tspan><tspan class="cls-7" x="190.32" y="0"> </tspan><tspan class="cls-52" x="194.99" y="0">m</tspan><tspan class="cls-55" x="202.3" y="0">eticulously</tspan><tspan class="cls-9" x="238.5" y="0"> </tspan><tspan class="cls-54" x="243.16" y="0">e</tspan><tspan class="cls-53" x="247.26" y="0">n</tspan><tspan class="cls-54" x="251.87" y="0">gi</tspan><tspan class="cls-53" x="258.28" y="0">n</tspan><tspan class="cls-55" x="262.9" y="0">ee</tspan><tspan class="cls-82" x="271.09" y="0">r</tspan><tspan class="cls-54" x="273.67" y="0">ed</tspan><tspan class="cls-9" x="282.38" y="0"> </tspan><tspan class="cls-81" x="287.04" y="0">b</tspan><tspan class="cls-55" x="291.54" y="0">y</tspan><tspan x="295.2" y="0"> </tspan></text>
    <text class="cls-31" transform="translate(45.07 609.94)"><tspan class="cls-71" x="0" y="0">P</tspan><tspan class="cls-83" x="4.73" y="0">r</tspan><tspan class="cls-49" x="7.31" y="0">o</tspan><tspan class="cls-55" x="11.56" y="0">je</tspan><tspan class="cls-60" x="17.44" y="0">c</tspan><tspan class="cls-54" x="21.29" y="0">t</tspan><tspan class="cls-117" x="24" y="0"> </tspan><tspan class="cls-81" x="26.06" y="0">A</tspan><tspan class="cls-54" x="30.83" y="0">-IR</tspan><tspan class="cls-118" x="40.28" y="0"> </tspan><tspan class="cls-84" x="42.33" y="0">t</tspan><tspan class="cls-55" x="44.91" y="0">o</tspan><tspan class="cls-117" x="49.17" y="0"> </tspan><tspan class="cls-55" x="51.23" y="0">ena</tspan><tspan class="cls-49" x="63.92" y="0">b</tspan><tspan class="cls-54" x="68.52" y="0">le</tspan><tspan class="cls-118" x="74.37" y="0"> </tspan><tspan class="cls-89" x="76.42" y="0">c</tspan><tspan class="cls-55" x="80.16" y="0">on</tspan><tspan class="cls-85" x="89.02" y="0">t</tspan><tspan class="cls-79" x="91.59" y="0">e</tspan><tspan class="cls-54" x="95.58" y="0">x</tspan><tspan class="cls-88" x="99.19" y="0">t</tspan><tspan class="cls-54" x="101.83" y="0">-</tspan><tspan class="cls-87" x="104.37" y="0">a</tspan><tspan class="cls-81" x="108.3" y="0">w</tspan><tspan class="cls-54" x="114.2" y="0">a</tspan><tspan class="cls-83" x="118.2" y="0">r</tspan><tspan class="cls-55" x="120.78" y="0">e</tspan><tspan class="cls-118" x="124.88" y="0"> </tspan><tspan class="cls-83" x="126.93" y="0">r</tspan><tspan class="cls-79" x="129.51" y="0">e</tspan><tspan class="cls-49" x="133.5" y="0">a</tspan><tspan class="cls-54" x="137.49" y="0">son</tspan><tspan class="cls-49" x="149.63" y="0">i</tspan><tspan class="cls-53" x="151.37" y="0">n</tspan><tspan class="cls-54" x="155.99" y="0">g,</tspan><tspan class="cls-118" x="162" y="0"> </tspan><tspan class="cls-54" x="164.05" y="0">high-fideli</tspan><tspan class="cls-88" x="198.54" y="0">t</tspan><tspan class="cls-54" x="201.18" y="0">y</tspan><tspan class="cls-118" x="204.84" y="0"> </tspan><tspan class="cls-46" x="206.89" y="0">k</tspan><tspan class="cls-52" x="210.91" y="0">n</tspan><tspan class="cls-78" x="215.52" y="0">o</tspan><tspan class="cls-54" x="219.67" y="0">w</tspan><tspan class="cls-49" x="225.69" y="0">l</tspan><tspan class="cls-54" x="227.43" y="0">edge</tspan><tspan class="cls-117" x="244.9" y="0"> </tspan><tspan class="cls-88" x="246.96" y="0">s</tspan><tspan class="cls-54" x="250.17" y="0">ynt</tspan><tspan class="cls-52" x="261.14" y="0">h</tspan><tspan class="cls-55" x="265.75" y="0">esis,</tspan><tspan class="cls-117" x="279.51" y="0"> </tspan><tspan class="cls-49" x="281.57" y="0">a</tspan><tspan class="cls-53" x="285.56" y="0">n</tspan><tspan class="cls-54" x="290.17" y="0">d</tspan><tspan x="294.79" y="0"> </tspan></text>
    <text class="cls-31" transform="translate(45.07 618.94)"><tspan class="cls-49" x="0" y="0">s</tspan><tspan class="cls-54" x="3.28" y="0">c</tspan><tspan class="cls-49" x="7.08" y="0">a</tspan><tspan class="cls-54" x="11.07" y="0">la</tspan><tspan class="cls-49" x="16.82" y="0">b</tspan><tspan class="cls-54" x="21.43" y="0">le</tspan><tspan class="cls-13" x="27.27" y="0"> </tspan><tspan class="cls-54" x="30.17" y="0">dep</tspan><tspan class="cls-48" x="43.49" y="0">l</tspan><tspan class="cls-78" x="45.23" y="0">o</tspan><tspan class="cls-54" x="49.38" y="0">y</tspan><tspan class="cls-52" x="53.05" y="0">m</tspan><tspan class="cls-55" x="60.35" y="0">ent</tspan><tspan class="cls-13" x="71.76" y="0"> </tspan><tspan class="cls-52" x="74.65" y="0">a</tspan><tspan class="cls-54" x="78.67" y="0">c</tspan><tspan class="cls-82" x="82.47" y="0">r</tspan><tspan class="cls-54" x="85.06" y="0">o</tspan><tspan class="cls-49" x="89.31" y="0">ss</tspan><tspan class="cls-13" x="95.86" y="0"> </tspan><tspan class="cls-55" x="98.76" y="0">dyn</tspan><tspan class="cls-49" x="111.63" y="0">a</tspan><tspan class="cls-54" x="115.62" y="0">mic</tspan><tspan class="cls-14" x="128.48" y="0"> </tspan><tspan class="cls-49" x="131.38" y="0">d</tspan><tspan class="cls-54" x="135.99" y="0">ata</tspan><tspan class="cls-13" x="146.69" y="0"> </tspan><tspan class="cls-54" x="149.59" y="0">e</tspan><tspan class="cls-88" x="153.68" y="0">n</tspan><tspan class="cls-54" x="158.21" y="0">vi</tspan><tspan class="cls-82" x="163.62" y="0">r</tspan><tspan class="cls-49" x="166.21" y="0">o</tspan><tspan class="cls-54" x="170.45" y="0">n</tspan><tspan class="cls-52" x="175.05" y="0">m</tspan><tspan class="cls-55" x="182.36" y="0">ents.</tspan><tspan class="cls-14" x="198.4" y="0"> </tspan><tspan class="cls-49" x="201.3" y="0">A</tspan><tspan class="cls-54" x="206.18" y="0">ll</tspan><tspan class="cls-13" x="209.68" y="0"> </tspan><tspan class="cls-52" x="212.58" y="0">m</tspan><tspan class="cls-55" x="219.89" y="0">ode</tspan><tspan class="cls-49" x="232.85" y="0">l</tspan><tspan class="cls-54" x="234.59" y="0">s,</tspan><tspan class="cls-13" x="239.23" y="0"> </tspan><tspan class="cls-53" x="242.13" y="0">m</tspan><tspan class="cls-54" x="249.43" y="0">et</tspan><tspan class="cls-53" x="256.24" y="0">h</tspan><tspan class="cls-55" x="260.85" y="0">od</tspan><tspan class="cls-49" x="269.72" y="0">o</tspan><tspan class="cls-54" x="273.97" y="0">log</tspan><tspan class="cls-49" x="284.64" y="0">i</tspan><tspan class="cls-54" x="286.38" y="0">es,</tspan><tspan x="295.11" y="0"> </tspan></text>
    <text class="cls-31" transform="translate(45.07 627.94)"><tspan class="cls-54" x="0" y="0">a</tspan><tspan class="cls-53" x="4" y="0">n</tspan><tspan class="cls-49" x="8.61" y="0">d</tspan><tspan class="cls-12" x="13.22" y="0"> </tspan><tspan class="cls-55" x="17.25" y="0">d</tspan><tspan class="cls-48" x="21.87" y="0">a</tspan><tspan class="cls-54" x="25.86" y="0">t</tspan><tspan class="cls-49" x="28.57" y="0">a</tspan><tspan class="cls-10" x="32.56" y="0"> </tspan><tspan class="cls-54" x="36.6" y="0">pipeli</tspan><tspan class="cls-52" x="55.17" y="0">n</tspan><tspan class="cls-55" x="59.79" y="0">e</tspan><tspan class="cls-49" x="63.88" y="0">s</tspan><tspan class="cls-12" x="67.16" y="0"> </tspan><tspan class="cls-54" x="71.2" y="0">a</tspan><tspan class="cls-82" x="75.19" y="0">r</tspan><tspan class="cls-54" x="77.78" y="0">e</tspan><tspan class="cls-12" x="81.87" y="0"> </tspan><tspan class="cls-55" x="85.91" y="0">p</tspan><tspan class="cls-83" x="90.52" y="0">r</tspan><tspan class="cls-55" x="93.11" y="0">o</tspan><tspan class="cls-85" x="97.36" y="0">t</tspan><tspan class="cls-54" x="99.94" y="0">e</tspan><tspan class="cls-57" x="104.03" y="0">c</tspan><tspan class="cls-85" x="107.88" y="0">t</tspan><tspan class="cls-55" x="110.46" y="0">e</tspan><tspan class="cls-49" x="114.55" y="0">d</tspan><tspan class="cls-12" x="119.16" y="0"> </tspan><tspan class="cls-54" x="123.2" y="0">u</tspan><tspan class="cls-53" x="127.77" y="0">n</tspan><tspan class="cls-49" x="132.38" y="0">d</tspan><tspan class="cls-55" x="136.99" y="0">er</tspan><tspan class="cls-12" x="143.76" y="0"> </tspan><tspan class="cls-54" x="147.8" y="0">app</tspan><tspan class="cls-49" x="161.02" y="0">l</tspan><tspan class="cls-54" x="162.76" y="0">ica</tspan><tspan class="cls-49" x="172.32" y="0">b</tspan><tspan class="cls-54" x="176.92" y="0">le</tspan><tspan class="cls-10" x="182.77" y="0"> </tspan><tspan class="cls-48" x="186.81" y="0">i</tspan><tspan class="cls-55" x="188.56" y="0">n</tspan><tspan class="cls-84" x="193.16" y="0">t</tspan><tspan class="cls-55" x="195.73" y="0">e</tspan><tspan class="cls-48" x="199.83" y="0">l</tspan><tspan class="cls-54" x="201.57" y="0">le</tspan><tspan class="cls-57" x="207.41" y="0">c</tspan><tspan class="cls-54" x="211.26" y="0">tual</tspan><tspan class="cls-10" x="224.29" y="0"> </tspan><tspan class="cls-55" x="228.34" y="0">p</tspan><tspan class="cls-83" x="232.95" y="0">r</tspan><tspan class="cls-54" x="235.53" y="0">ope</tspan><tspan class="cls-93" x="248.5" y="0">r</tspan><tspan class="cls-87" x="251.28" y="0">t</tspan><tspan class="cls-54" x="253.91" y="0">y</tspan><tspan class="cls-11" x="257.58" y="0"> </tspan><tspan class="cls-54" x="261.61" y="0">l</tspan><tspan class="cls-87" x="263.36" y="0">a</tspan><tspan class="cls-86" x="267.29" y="0">w</tspan><tspan class="cls-54" x="273.26" y="0">s,</tspan><tspan class="cls-11" x="277.9" y="0"> </tspan><tspan class="cls-48" x="281.94" y="0">a</tspan><tspan class="cls-53" x="285.93" y="0">n</tspan><tspan class="cls-55" x="290.54" y="0">d</tspan><tspan x="295.15" y="0"> </tspan></text>
    <text class="cls-31" transform="translate(45.07 636.94)"><tspan class="cls-55" x="0" y="0">ope</tspan><tspan class="cls-90" x="12.96" y="0">r</tspan><tspan class="cls-48" x="15.57" y="0">a</tspan><tspan class="cls-85" x="19.56" y="0">t</tspan><tspan class="cls-54" x="22.14" y="0">e</tspan><tspan class="cls-110" x="26.24" y="0"> </tspan><tspan class="cls-54" x="28.66" y="0">with</tspan><tspan class="cls-48" x="43.74" y="0">i</tspan><tspan class="cls-55" x="45.48" y="0">n</tspan><tspan class="cls-108" x="50.08" y="0"> </tspan><tspan class="cls-49" x="52.51" y="0">a</tspan><tspan class="cls-108" x="56.5" y="0"> </tspan><tspan class="cls-49" x="58.93" y="0">s</tspan><tspan class="cls-55" x="62.2" y="0">ecu</tspan><tspan class="cls-83" x="74.67" y="0">r</tspan><tspan class="cls-54" x="77.26" y="0">e,</tspan><tspan class="cls-108" x="82.7" y="0"> </tspan><tspan class="cls-55" x="85.13" y="0">p</tspan><tspan class="cls-46" x="89.75" y="0">r</tspan><tspan class="cls-54" x="92.36" y="0">i</tspan><tspan class="cls-81" x="94.11" y="0">v</tspan><tspan class="cls-53" x="97.66" y="0">a</tspan><tspan class="cls-46" x="101.67" y="0">c</tspan><tspan class="cls-91" x="105.43" y="0">y</tspan><tspan class="cls-105" x="109" y="0">-</tspan><tspan class="cls-89" x="111.61" y="0">c</tspan><tspan class="cls-50" x="115.36" y="0">o</tspan><tspan class="cls-54" x="119.61" y="0">mp</tspan><tspan class="cls-49" x="131.51" y="0">l</tspan><tspan class="cls-54" x="133.26" y="0">iant</tspan><tspan class="cls-109" x="146.31" y="0"> </tspan><tspan class="cls-111" x="148.74" y="0">f</tspan><tspan class="cls-90" x="151.53" y="0">r</tspan><tspan class="cls-54" x="154.14" y="0">a</tspan><tspan class="cls-52" x="158.14" y="0">m</tspan><tspan class="cls-88" x="165.45" y="0">e</tspan><tspan class="cls-79" x="169.47" y="0">w</tspan><tspan class="cls-49" x="175.39" y="0">o</tspan><tspan class="cls-47" x="179.64" y="0">r</tspan><tspan class="cls-54" x="182.26" y="0">k</tspan><tspan class="cls-109" x="186.33" y="0"> </tspan><tspan class="cls-49" x="188.76" y="0">a</tspan><tspan class="cls-54" x="192.75" y="0">lig</tspan><tspan class="cls-52" x="200.91" y="0">n</tspan><tspan class="cls-55" x="205.52" y="0">ed</tspan><tspan class="cls-110" x="214.23" y="0"> </tspan><tspan class="cls-54" x="216.65" y="0">with</tspan><tspan class="cls-109" x="231.73" y="0"> </tspan><tspan class="cls-48" x="234.16" y="0">i</tspan><tspan class="cls-54" x="235.9" y="0">n</tspan><tspan class="cls-85" x="240.5" y="0">t</tspan><tspan class="cls-54" x="243.08" y="0">e</tspan><tspan class="cls-47" x="247.17" y="0">r</tspan><tspan class="cls-54" x="249.79" y="0">nation</tspan><tspan class="cls-48" x="271.7" y="0">a</tspan><tspan class="cls-54" x="275.69" y="0">l</tspan><tspan class="cls-109" x="277.44" y="0"> </tspan><tspan class="cls-54" x="279.87" y="0">d</tspan><tspan class="cls-49" x="284.48" y="0">a</tspan><tspan class="cls-54" x="288.47" y="0">t</tspan><tspan class="cls-49" x="291.18" y="0">a</tspan><tspan x="295.17" y="0"> </tspan></text>
    <text class="cls-31" transform="translate(45.07 645.94)"><tspan class="cls-54" x="0" y="0">g</tspan><tspan class="cls-78" x="4.66" y="0">ov</tspan><tspan class="cls-55" x="12.37" y="0">e</tspan><tspan class="cls-47" x="16.46" y="0">r</tspan><tspan class="cls-54" x="19.08" y="0">n</tspan><tspan class="cls-48" x="23.68" y="0">a</tspan><tspan class="cls-53" x="27.67" y="0">n</tspan><tspan class="cls-90" x="32.28" y="0">c</tspan><tspan class="cls-54" x="36.03" y="0">e sta</tspan><tspan class="cls-53" x="51.81" y="0">n</tspan><tspan class="cls-55" x="56.43" y="0">d</tspan><tspan class="cls-48" x="61.04" y="0">a</tspan><tspan class="cls-83" x="65.03" y="0">r</tspan><tspan class="cls-55" x="67.61" y="0">ds</tspan><tspan x="75.51" y="0">.</tspan></text>
  </g>
  <g class="cls-17">
    <path class="cls-2" d="M258.68,253.31l-11.17,22.8h4.75l2.45-5.28h12.41l2.48,5.28h4.82l-11.2-22.8h-4.54ZM256.27,267.51l4.64-9.97,4.68,9.97h-9.33Z"/>
    <path class="cls-2" d="M294.12,254.29c-1.6-.65-3.47-.98-5.62-.98h-10.21v22.8h4.61v-6.58h5.6c2.15,0,4.02-.33,5.62-.98,1.6-.65,2.82-1.59,3.67-2.82.85-1.23,1.28-2.66,1.28-4.32s-.43-3.12-1.28-4.33c-.85-1.22-2.07-2.15-3.67-2.8M292.86,264.78c-1.04.78-2.57,1.17-4.57,1.17h-5.39v-9.05h5.39c2.01,0,3.53.39,4.57,1.17,1.04.78,1.56,1.9,1.56,3.35s-.52,2.57-1.56,3.35"/>
    <path class="cls-2" d="M332.84,254.29c-1.6-.65-3.47-.98-5.62-.98h-10.21v22.8h4.61v-6.58h5.6c2.15,0,4.02-.33,5.62-.98,1.6-.65,2.82-1.59,3.67-2.82.85-1.23,1.28-2.66,1.28-4.32s-.43-3.12-1.28-4.33c-.85-1.22-2.07-2.15-3.67-2.8M331.58,264.78c-1.04.78-2.57,1.17-4.57,1.17h-5.39v-9.05h5.39c2.01,0,3.53.39,4.57,1.17,1.04.78,1.56,1.9,1.56,3.35s-.52,2.57-1.56,3.35"/>
    <path class="cls-2" d="M354.06,253.31h-4.54l-11.17,22.8h4.75l2.45-5.28h12.41l2.48,5.28h4.82l-11.2-22.8ZM347.11,267.51l4.65-9.97,4.68,9.97h-9.33Z"/>
    <polygon class="cls-2" points="310.09 253.24 304.08 264.77 305.62 264.77 299.67 276.17 303.73 276.17 309.67 264.77 308.14 264.77 314.15 253.24 310.09 253.24"/>
    <path class="cls-2" d="M368.61,288.59h-125.22c-3.73,0-6.76-3.03-6.76-6.76v-35.71c0-3.73,3.03-6.76,6.76-6.76h125.22c3.73,0,6.76,3.03,6.76,6.76v35.71c0,3.73-3.03,6.76-6.76,6.76M243.39,242.18c-2.17,0-3.93,1.76-3.93,3.93v35.71c0,2.17,1.76,3.93,3.93,3.93h125.22c2.17,0,3.93-1.76,3.93-3.93v-35.71c0-2.17-1.76-3.93-3.93-3.93h-125.22Z"/>
  </g>
  <g class="cls-18">
    <text class="cls-3" transform="translate(234.53 305.52)"><tspan class="cls-123" x="0" y="0">!</tspan><tspan class="cls-113" x="2.07" y="0">&quot;</tspan><tspan class="cls-116" x="5.19" y="0">#</tspan><tspan class="cls-113" x="10.44" y="0">$%&amp;!&apos;</tspan><tspan class="cls-121" x="30.53" y="0">(</tspan><tspan class="cls-113" x="33.09" y="0">)*</tspan><tspan class="cls-116" x="38.87" y="0">+</tspan><tspan class="cls-113" x="43.25" y="0">&amp;</tspan><tspan class="cls-119" x="48.47" y="0">%</tspan><tspan class="cls-116" x="54.69" y="0">!</tspan><tspan class="cls-112" x="56.83" y="0">&apos;,&apos;</tspan><tspan class="cls-120" x="62.18" y="0">(</tspan><tspan class="cls-112" x="64.75" y="0">-*+&amp;%&apos;!.</tspan><tspan class="cls-101" x="92.5" y="0">.</tspan><tspan class="cls-115" x="94.19" y="0">!&amp;/</tspan><tspan x="104.37" y="0">0</tspan></text>
  </g>
  <g class="cls-20">
    <text class="cls-5" transform="translate(205.9 353.29)"><tspan class="cls-73" x="0" y="0">L</tspan><tspan class="cls-66" x="9.54" y="0">as </tspan><tspan class="cls-42" x="31.36" y="0">r</tspan><tspan class="cls-64" x="37.71" y="0">e</tspan><tspan class="cls-44" x="47.58" y="0">f</tspan><tspan class="cls-67" x="53.21" y="0">o</tspan><tspan class="cls-41" x="63.51" y="0">r</tspan><tspan class="cls-64" x="69.94" y="0">m</tspan><tspan class="cls-66" x="86.92" y="0">as q</tspan><tspan class="cls-63" x="119.64" y="0">u</tspan><tspan class="cls-66" x="130.47" y="0">e v</tspan><tspan class="cls-63" x="153.68" y="0">ie</tspan><tspan class="cls-72" x="167.82" y="0">n</tspan><tspan class="cls-64" x="178.84" y="0">en</tspan><tspan class="cls-66" x="199.61" y="0"> </tspan><tspan class="cls-22" x="203.59" y="0"> </tspan></text>
    <text class="cls-5" transform="translate(173.83 375.29)"><tspan class="cls-64" x="0" y="0">en</tspan><tspan class="cls-68" x="20.77" y="0"> </tspan><tspan class="cls-64" x="24.75" y="0">e</tspan><tspan class="cls-67" x="34.63" y="0">l p</tspan><tspan class="cls-43" x="53.79" y="0">r</tspan><tspan class="cls-38" x="60.11" y="0">ó</tspan><tspan class="cls-66" x="70.12" y="0">x</tspan><tspan class="cls-63" x="79.41" y="0">i</tspan><tspan class="cls-74" x="83.67" y="0">m</tspan><tspan class="cls-66" x="100.76" y="0">o pe</tspan><tspan class="cls-69" x="135.83" y="0">r</tspan><tspan class="cls-66" x="142.24" y="0">i</tspan><tspan class="cls-63" x="146.52" y="0">o</tspan><tspan class="cls-66" x="156.81" y="0">d</tspan><tspan class="cls-63" x="167.74" y="0">o</tspan><tspan class="cls-68" x="178.02" y="0" xml:space="preserve"> l</tspan><tspan class="cls-64" x="186.28" y="0">egi</tspan><tspan class="cls-66" x="211.48" y="0">s</tspan><tspan class="cls-64" x="219.67" y="0">l</tspan><tspan class="cls-66" x="223.94" y="0">a</tspan><tspan class="cls-63" x="233.59" y="0">ti</tspan><tspan class="cls-35" x="244.41" y="0">v</tspan><tspan class="cls-66" x="253.48" y="0">o</tspan><tspan x="263.79" y="0"> </tspan></text>
    <text class="cls-5" transform="translate(260.95 397.29)"><tspan x="0" y="0"> </tspan></text>
    <text class="cls-33" transform="translate(264.91 397.29)"><tspan class="cls-66" x="0" y="0">(Ju</tspan><tspan class="cls-63" x="23.03" y="0">li</tspan><tspan class="cls-66" x="30.48" y="0">o </tspan><tspan class="cls-40" x="43.93" y="0">2</tspan><tspan class="cls-65" x="52.68" y="0">0</tspan><tspan class="cls-66" x="63.07" y="0">2</tspan><tspan class="cls-64" x="71.89" y="0">5</tspan><tspan x="80.66" y="0">)</tspan></text>
  </g>
</svg>